<svg version="1" xmlns="http://www.w3.org/2000/svg" width="933.333" height="933.333" viewBox="0 0 700.000000 700.000000"><path d="M339.7.6c-.1.1-5.6.4-12.2.8-6.6.3-13.1.8-14.5 1.1-1.4.2-5.1.7-8.3 1-3.2.3-8.2 1-11 1.6-2.9.5-6.8 1.2-8.7 1.5-1.9.3-10 2.1-18 4C152.8 38.4 59.6 122.7 20.3 234c-5.2 14.6-10.8 35-12.9 47-.4 2.5-.8 4.7-.9 5-.1.3-.5 2.5-.9 5-.5 2.5-1 5.3-1.1 6.2-.2.9-.7 4.8-1 8.5-.4 3.7-.9 7-1.1 7.4-.6 1-1.7 25.3-1.7 36.9 0 11.5 1.1 33.8 1.8 37.5.2 1.1.7 4.4 1 7.4.3 3 .8 6.4 1 7.5.2 1.2.7 3.9 1 6 .3 2.1.7 4.8 1 6 .3 1.2.7 3.2.9 4.6.9 5.2 3.9 17.8 6.2 26 18.7 65.2 54.7 122.2 105.9 167.6 5 4.4 10.8 9.3 13 10.9 2.2 1.6 4.5 3.4 5 4 1.8 2 26.1 18.3 36.2 24.3 30.1 17.7 66.2 31.9 99.8 39.2 12.2 2.6 12 2.6 17.5 3.5 2.5.4 5.3.9 6.4 1.1 1 .2 4.4.6 7.5.9 3.1.4 6.7.8 8 1 4.7.8 23.7 1.7 36.1 1.8 11.8.1 36.8-1.1 38-1.7.3-.2 3.4-.7 7-1 8.2-.9 13.1-1.6 14.8-2.1.7-.3 3.4-.7 6-1.1 2.6-.3 5-.8 5.3-1 .3-.2 4.1-1 8.5-1.9 22.2-4.6 51.6-15.1 76.4-27.3 67.2-33.2 123.4-89 156.9-155.9 9.9-19.7 13-27.2 19.6-46.7 3.4-10 9.9-34 11-40.8.3-1.8 1.2-6.9 2-11.3 1.8-9.9 2.4-14.9 4.1-32.5.8-8.4.8-43.7 0-51.8-.3-3.4-.9-9-1.2-12.5-.3-3.4-.8-7.1-1-8.2-.2-1-.6-3.7-.9-6-.7-4.5-3-17.6-3.9-21.5-5-22.7-10.9-41-20.4-63.6-4.9-11.7-13.2-28.3-17.9-35.6-1.2-2.1-2.3-4-2.3-4.4 0-1.3-19-29.2-25.5-37.4-47.2-59.8-107.7-100.2-182-121.8-15.2-4.4-35-8.3-55-10.6-10.5-1.2-47.8-2.8-48.8-2z"/></svg>